<svg width="790" height="166" viewBox="0 0 790 166" fill="none" xmlns="http://www.w3.org/2000/svg">
<path d="M428 164.04C428.276 164.04 428.5 164.264 428.5 164.54C428.5 164.816 428.276 165.04 428 165.04H265C264.724 165.04 264.5 164.816 264.5 164.54C264.5 164.264 264.724 164.04 265 164.04H428Z" fill="white"/>
<path d="M224 163.54C224.276 163.54 224.5 163.764 224.5 164.04C224.5 164.316 224.276 164.54 224 164.54H97C96.7239 164.54 96.5 164.316 96.5 164.04C96.5 163.764 96.7239 163.54 97 163.54H224Z" fill="white"/>
<path d="M237.5 163.54C237.776 163.54 238 163.764 238 164.04C238 164.316 237.776 164.54 237.5 164.54H231.5C231.224 164.54 231 164.316 231 164.04C231 163.764 231.224 163.54 231.5 163.54H237.5Z" fill="white"/>
<path d="M257 163.54C257.276 163.54 257.5 163.764 257.5 164.04C257.5 164.316 257.276 164.54 257 164.54H246C245.724 164.54 245.5 164.316 245.5 164.04C245.5 163.764 245.724 163.54 246 163.54H257Z" fill="white"/>
<path d="M733.5 163.04C733.776 163.04 734 163.264 734 163.54C734 163.816 733.776 164.04 733.5 164.04H677.5C677.224 164.04 677 163.816 677 163.54C677 163.264 677.224 163.04 677.5 163.04H733.5Z" fill="white"/>
<path fill-rule="evenodd" clip-rule="evenodd" d="M134.968 81.8643L134.989 81.9219L134.997 81.9824L142.432 145.924C143.992 145.569 146.828 145.04 149 145.04C150.566 145.04 151.281 145.303 151.811 145.605C152.092 145.766 152.183 145.845 152.367 145.927C152.508 145.989 152.688 146.04 153 146.04C153.067 146.04 153.183 146.013 153.364 145.911C153.542 145.811 153.746 145.66 153.982 145.462C154.475 145.047 154.973 144.544 155.604 143.979C156.207 143.441 156.885 142.891 157.622 142.51C158.364 142.126 159.193 141.899 160.082 142.047C161.798 142.333 162.658 143.5 163.391 144.415C164.14 145.352 164.757 146.04 166 146.04C166.838 146.04 167.747 146.283 168.657 146.618C169.571 146.955 170.529 147.401 171.462 147.837C172.404 148.276 173.321 148.705 174.188 149.024C174.849 149.268 175.456 149.437 176 149.506V129.54H188.5C188.776 129.54 189 129.764 189 130.04C189 130.316 188.776 130.54 188.5 130.54H177V154.04C177 154.316 176.776 154.54 176.5 154.54C176.224 154.54 176 154.316 176 154.04V150.511C175.306 150.439 174.575 150.231 173.843 149.962C172.929 149.625 171.971 149.179 171.038 148.743C170.096 148.304 169.179 147.875 168.312 147.556C167.44 147.235 166.662 147.04 166 147.04C164.243 147.04 163.36 145.978 162.609 145.04C161.842 144.08 161.202 143.247 159.918 143.033C159.307 142.931 158.699 143.079 158.081 143.398C157.459 143.72 156.856 144.202 156.271 144.726C155.715 145.223 155.119 145.814 154.627 146.228C154.371 146.443 154.11 146.64 153.853 146.784C153.599 146.926 153.308 147.04 153 147.04C152.562 147.04 152.242 146.966 151.961 146.841C151.723 146.735 151.47 146.564 151.314 146.475C150.969 146.277 150.434 146.04 149 146.04C146.663 146.04 143.444 146.695 142.121 147.025L141.569 147.163L141.503 146.598L140.825 140.768L129.497 129.251L120.734 138.04H130.5C130.776 138.04 131 138.264 131 138.54C131 138.816 130.776 139.04 130.5 139.04H119.979L119.422 144.31L118.776 143.987C118.177 143.687 116.32 143.04 114 143.04C113.304 143.04 113.06 143.187 112.963 143.284C112.853 143.394 112.808 143.549 112.74 143.888C112.683 144.174 112.603 144.644 112.244 145.003C111.872 145.375 111.304 145.54 110.5 145.54C109.684 145.54 109.158 145.37 108.785 145.009C108.612 144.842 108.496 144.655 108.406 144.5C108.308 144.331 108.246 144.21 108.153 144.077C107.995 143.851 107.753 143.603 107.173 143.403C106.569 143.195 105.601 143.04 104 143.04C100.878 143.04 99.0984 143.992 97.6523 144.956C96.2286 145.905 94.9424 147.04 93 147.04C92.229 147.04 91.8405 147.226 91.5215 147.479C91.3442 147.619 91.1813 147.786 90.9756 147.997C90.7757 148.202 90.5436 148.438 90.2549 148.676C89.0627 149.657 87.0502 150.54 82 150.54C77.1953 150.54 74.6914 152.678 72.1426 154.916C69.5783 157.168 66.9528 159.54 62 159.54C57.2613 159.54 56.3639 159.175 55.6602 158.706C55.5024 158.601 55.4089 158.532 55.2686 158.462C55.1357 158.396 54.9521 158.327 54.6543 158.264C54.0442 158.134 52.9942 158.04 51 158.04C49.0442 158.04 47.9408 158.316 47.1826 158.691C46.4053 159.077 45.967 159.566 45.2627 160.17C44.5659 160.767 43.7081 161.37 42.2129 161.816C40.7346 162.257 38.65 162.54 35.5 162.54H0.5C0.223858 162.54 0 162.316 0 162.04C0 161.764 0.223858 161.54 0.5 161.54H35.5C38.5997 161.54 40.578 161.26 41.9277 160.857C43.2602 160.46 43.9967 159.938 44.6123 159.41C45.2203 158.889 45.8137 158.253 46.7393 157.795C47.6842 157.327 48.956 157.04 51 157.04C53.0057 157.04 54.1433 157.133 54.8613 157.285C55.2274 157.363 55.4932 157.458 55.7139 157.567C55.9269 157.673 56.0914 157.792 56.2148 157.874C56.6361 158.155 57.2387 158.54 62 158.54C66.5472 158.54 68.9217 156.413 71.4824 154.164C74.0586 151.902 76.8047 149.54 82 149.54C86.9496 149.54 88.6872 148.673 89.6201 147.904C89.8624 147.705 90.0604 147.503 90.2607 147.298C90.4553 147.099 90.6638 146.883 90.9004 146.695C91.4095 146.292 92.0211 146.04 93 146.04C94.5576 146.04 95.5214 145.175 97.0977 144.124C98.6516 143.088 100.622 142.04 104 142.04C105.649 142.04 106.744 142.198 107.499 142.458C108.278 142.727 108.692 143.104 108.972 143.503C109.097 143.682 109.2 143.874 109.271 143.998C109.351 144.136 109.411 144.223 109.48 144.29C109.592 144.398 109.816 144.54 110.5 144.54C111.196 144.54 111.44 144.393 111.537 144.296C111.647 144.186 111.692 144.031 111.76 143.692C111.817 143.406 111.897 142.936 112.256 142.577C112.628 142.205 113.196 142.04 114 142.04C115.942 142.04 117.595 142.463 118.573 142.821L125.003 81.9873L125.01 81.9238L125.032 81.8643L130 68.6162L134.968 81.8643ZM130.211 128.55L140.637 139.15L138.48 120.599L130.211 128.55ZM120.174 137.184L129.146 128.187L129.153 128.18L137.619 120.04H121.987L120.174 137.184ZM122.638 119.04H138.3L136.459 103.219L122.638 119.04ZM122.2 118.02L135.725 102.54H123.837L122.2 118.02ZM124.462 101.54H136.265L134.834 89.2451L124.462 101.54ZM124.055 100.472L134.676 87.8828L134.055 82.54H125.95L124.055 100.472ZM126.222 81.54H133.778L130 71.4629L126.222 81.54Z" fill="white"/>
<path d="M444.5 123.04C444.776 123.04 445 123.264 445 123.54V133.54C445 133.816 444.776 134.04 444.5 134.04C444.224 134.04 444 133.816 444 133.54V123.54C444 123.264 444.224 123.04 444.5 123.04Z" fill="white"/>
<path d="M462.82 96.1562L489.82 118.656C490.032 118.833 490.06 119.148 489.884 119.36C489.707 119.572 489.392 119.601 489.18 119.424L488.5 118.857V133.54C488.5 133.816 488.276 134.04 488 134.04C487.724 134.04 487.5 133.816 487.5 133.54V118.023L474.5 107.19V133.54C474.5 133.816 474.276 134.04 474 134.04C473.724 134.04 473.5 133.816 473.5 133.54V106.357L462.494 97.1855L452 105.619V133.54C452 133.816 451.776 134.04 451.5 134.04C451.224 134.04 451 133.816 451 133.54V106.423L437.196 117.515V132.04C437.196 132.316 436.972 132.54 436.696 132.54C436.42 132.54 436.196 132.316 436.196 132.04V118.318L434.813 119.43C434.598 119.603 434.283 119.569 434.11 119.354C433.937 119.138 433.971 118.823 434.187 118.65L462.506 95.8936L462.82 96.1562Z" fill="white"/>
<path d="M468.5 107.794V133.54C468.5 133.816 468.276 134.04 468 134.04C467.724 134.04 467.5 133.816 467.5 133.54V108.286L461.512 103.68L456 108.273V133.54C456 133.816 455.776 134.04 455.5 134.04C455.224 134.04 455 133.816 455 133.54V107.806L455.18 107.656L461.487 102.399L468.5 107.794Z" fill="white"/>
<path d="M462 119.04C462.276 119.04 462.5 119.264 462.5 119.54V133.54C462.5 133.816 462.276 134.04 462 134.04C461.724 134.04 461.5 133.816 461.5 133.54V119.54C461.5 119.264 461.724 119.04 462 119.04Z" fill="white"/>
<path d="M480 121.54C480.276 121.54 480.5 121.764 480.5 122.04V133.54C480.5 133.816 480.276 134.04 480 134.04C479.724 134.04 479.5 133.816 479.5 133.54V122.04C479.5 121.764 479.724 121.54 480 121.54Z" fill="white"/>
<path fill-rule="evenodd" clip-rule="evenodd" d="M616.559 24.8057C616.688 24.562 616.99 24.4695 617.234 24.5986C617.478 24.728 617.571 25.0305 617.442 25.2744L613.044 33.5811C613.076 33.6565 613.122 33.7518 613.185 33.8682C613.301 34.0861 613.462 34.3514 613.661 34.6602C614.06 35.2774 614.603 36.0451 615.241 36.9092C616.518 38.6363 618.161 40.7266 619.762 42.7275C622.291 45.8884 624.731 48.8479 625.4 49.7402C625.663 50.0907 625.837 50.5927 625.961 51.1406C626.417 53.1524 626.374 56.6381 626.216 59.4531C626.173 60.2221 626.117 60.9472 626.062 61.5879C627.959 61.0337 629.785 60.8732 631.224 61.5928C632.344 62.1528 633.096 63.0571 633.651 64.0928C634.202 65.1201 634.574 66.3071 634.917 67.46C635.265 68.6311 635.583 69.7645 636.027 70.7666C636.469 71.7631 637.017 72.58 637.791 73.1328C640.392 74.9907 642.335 77.8057 643.199 79.3525C644.49 78.62 646.3 77.6471 648.281 76.6826C651.5 75.1157 655.228 73.5356 657.91 73.0479C658.182 72.9985 658.443 73.1787 658.492 73.4502C658.542 73.7218 658.361 73.9827 658.09 74.0322C655.665 74.4731 652.246 75.8886 649.135 77.3828C650.338 80.4501 651.65 83.6186 653.072 86.4521C654.565 89.4263 656.161 91.994 657.854 93.6865C660.293 96.1263 662.399 97.9788 663.436 98.8418L663.812 99.1494L663.855 99.1846L663.891 99.2275C664.515 100.008 666.349 101.675 668.582 102.047C670.064 102.294 671.212 102.557 672.023 103.295C672.849 104.046 673.243 105.202 673.495 106.97C673.614 107.804 673.735 108.86 673.852 109.989C674.104 112.442 674.333 115.268 674.462 117.003C674.471 117.129 674.48 117.25 674.488 117.364L688.795 137.591C692.028 138.272 698.541 139.66 700.121 140.055C701.132 140.307 701.607 140.426 701.957 140.484C702.286 140.539 702.497 140.54 703 140.54C703.034 140.54 703.125 140.521 703.363 140.29C703.475 140.182 703.59 140.058 703.736 139.904C703.878 139.755 704.041 139.588 704.227 139.42C704.989 138.727 706.105 138.04 708 138.04C710.487 138.04 712.401 139.265 713.398 140.204C713.796 139.568 714.38 138.82 715.119 138.166C716.114 137.285 717.436 136.54 719 136.54C720.057 136.54 721.207 137.203 722.312 138.05C723.44 138.914 724.633 140.06 725.786 141.182C726.95 142.314 728.072 143.42 729.089 144.246C729.596 144.658 730.063 144.988 730.481 145.213C730.906 145.441 731.243 145.54 731.5 145.54C733.152 145.54 734.531 146.372 735.919 147.097C737.336 147.836 738.873 148.54 741 148.54C742.224 148.54 744.055 149.073 746.218 149.817C748.384 150.563 751.044 151.58 753.854 152.568C759.539 154.568 766.093 156.54 772 156.54H789.5C789.776 156.54 790 156.764 790 157.04C790 157.316 789.776 157.54 789.5 157.54H772C765.907 157.54 759.211 155.512 753.521 153.512C750.644 152.5 748.085 151.517 745.892 150.763C743.695 150.007 742.026 149.54 741 149.54C738.627 149.54 736.914 148.744 735.456 147.983C733.969 147.208 732.848 146.54 731.5 146.54C731.007 146.54 730.5 146.358 730.009 146.094C729.512 145.827 728.99 145.453 728.458 145.021C727.397 144.16 726.237 143.016 725.089 141.898C723.929 140.77 722.778 139.666 721.704 138.843C720.606 138.002 719.693 137.54 719 137.54C717.765 137.54 716.669 138.128 715.781 138.914C714.893 139.7 714.256 140.647 713.947 141.264L713.598 141.963L713.109 141.353C712.51 140.603 710.608 139.04 708 139.04C706.396 139.04 705.511 139.603 704.898 140.16C704.74 140.304 704.598 140.45 704.461 140.594C704.328 140.733 704.189 140.882 704.059 141.009C703.813 141.247 703.466 141.54 703 141.54C702.503 141.54 702.214 141.541 701.793 141.471C701.393 141.404 700.868 141.273 699.879 141.025C698.299 140.63 691.642 139.213 688.448 138.54H648.5C648.224 138.54 648 138.316 648 138.04C648 137.764 648.224 137.54 648.5 137.54H687.533L673.592 117.829L673.512 117.715L673.501 117.575C673.5 117.564 673.499 117.552 673.498 117.54H661.325L669.938 133.3C670.071 133.542 669.982 133.846 669.74 133.979C669.498 134.111 669.194 134.022 669.062 133.78L665.204 126.722H656.5C656.224 126.722 656 126.498 656 126.222C656 125.946 656.224 125.722 656.5 125.722H664.657L660.185 117.54H647C646.724 117.54 646.5 117.316 646.5 117.04C646.5 116.764 646.724 116.54 647 116.54H673.424C673.3 114.918 673.11 112.627 672.901 110.54H637.5C637.224 110.54 637 110.316 637 110.04C637 109.764 637.224 109.54 637.5 109.54H672.797C672.718 108.802 672.639 108.113 672.56 107.517L663.474 107.039C663.198 107.025 662.987 106.789 663.001 106.514C663.016 106.238 663.251 106.026 663.526 106.041L672.408 106.508C672.167 105.175 671.833 104.473 671.352 104.035C670.788 103.523 669.936 103.286 668.418 103.033C666.021 102.634 664.09 100.979 663.268 100.04H601.639L563.257 122.97L562.895 123.186L562.62 122.865C562.136 122.301 561.309 121.45 560.415 120.745C559.968 120.393 559.515 120.085 559.089 119.868C558.656 119.648 558.288 119.54 558 119.54H554C552.089 119.54 550.847 118.706 549.618 117.969C548.395 117.235 547.114 116.54 545 116.54C541.626 116.54 539.538 118.733 538.935 119.788L538 121.423V119.697C537.993 119.693 537.987 119.688 537.979 119.684C537.834 119.606 537.561 119.504 537.096 119.404C536.17 119.207 534.585 119.04 532 119.04C528.981 119.04 527.108 120.766 525.571 122.61C524.828 123.502 524.108 124.498 523.434 125.212C522.753 125.933 521.97 126.54 521 126.54C519.458 126.54 517.548 126.284 515.864 126.034C515.014 125.908 514.226 125.785 513.549 125.691C512.866 125.597 512.336 125.54 512 125.54C511.617 125.54 511.33 125.541 511.1 125.562C510.867 125.583 510.754 125.621 510.694 125.656C510.637 125.691 510.5 125.794 510.5 126.54V130.747L510.354 130.894C510.258 130.989 510.099 131.09 509.923 131.189C509.729 131.299 509.459 131.437 509.1 131.605C508.38 131.942 507.283 132.405 505.676 133.008C503.683 133.755 503.442 133.876 502.498 134.254C501.554 134.632 499.923 135.259 495.173 137.009C485.583 140.542 471.005 141.54 459.5 141.54C453.714 141.54 448.686 140.911 444.305 140.285C439.906 139.657 436.204 139.04 433 139.04C429.631 139.04 426.92 137.871 424.594 136.739C423.419 136.168 422.369 135.62 421.351 135.206C420.339 134.795 419.408 134.54 418.5 134.54C417.499 134.54 417.038 134.573 416.812 134.611C416.759 134.62 416.725 134.629 416.705 134.635C416.687 134.64 416.68 134.643 416.679 134.644C416.653 134.657 416.7 134.632 416.59 134.706C416.393 134.837 416.154 134.91 415.668 134.959C415.18 135.009 414.377 135.04 413 135.04C410.047 135.04 408.298 133.543 406.787 132.158C405.252 130.751 404.021 129.54 402 129.54H398.5C395.412 129.54 393.021 130.96 390.777 132.456C389.67 133.194 388.576 133.967 387.484 134.545C386.385 135.127 385.239 135.54 384 135.54C381.959 135.54 380.586 136.661 379.211 137.91C378.539 138.521 377.848 139.18 377.105 139.675C376.35 140.179 375.504 140.54 374.5 140.54H360.5C356.161 140.54 352.269 142.712 349.034 144.951C348.229 145.509 347.469 146.067 346.754 146.595C346.042 147.12 345.37 147.618 344.753 148.045C344.137 148.471 343.56 148.839 343.031 149.102C342.51 149.36 341.989 149.54 341.5 149.54C339.925 149.54 339.117 149.272 338.237 149.021C337.398 148.781 336.445 148.54 334.5 148.54C332.692 148.54 331.322 149.549 329.8 150.69C328.322 151.799 326.692 153.04 324.5 153.04C322.399 153.04 321.075 152.509 319.868 152.001C318.68 151.501 317.639 151.04 316 151.04H297.562C293.751 151.04 291.288 150.14 289.345 149.244C288.358 148.789 287.58 148.374 286.783 148.05C286.01 147.735 285.287 147.54 284.5 147.54C282.83 147.54 281.765 147.874 280.72 148.221C279.659 148.573 278.589 148.951 277 148.951C275.373 148.951 274.018 148.293 272.674 147.704C271.311 147.107 269.891 146.54 268 146.54C267.067 146.54 266.425 146.713 265.922 146.958C265.41 147.207 265.017 147.541 264.575 147.92C264.142 148.291 263.659 148.707 263.016 149.021C262.362 149.338 261.567 149.54 260.5 149.54C258.711 149.54 257.712 150.414 256.876 151.369C256.476 151.826 256.053 152.382 255.644 152.775C255.213 153.189 254.688 153.54 254 153.54H248.5C248.224 153.54 248 153.316 248 153.04C248 152.764 248.224 152.54 248.5 152.54H254C254.312 152.54 254.6 152.391 254.95 152.055C255.322 151.698 255.649 151.254 256.124 150.711C257.038 149.666 258.289 148.54 260.5 148.54C261.433 148.54 262.075 148.367 262.578 148.122C263.09 147.873 263.483 147.539 263.925 147.16C264.358 146.789 264.841 146.373 265.484 146.06C266.138 145.742 266.933 145.54 268 145.54C270.109 145.54 271.689 146.18 273.076 146.788C274.482 147.404 275.627 147.951 277 147.951C278.41 147.951 279.341 147.625 280.405 147.271C281.485 146.913 282.67 146.54 284.5 146.54C285.463 146.54 286.319 146.782 287.16 147.124C287.978 147.456 288.852 147.916 289.764 148.336C291.617 149.19 293.936 150.04 297.562 150.04H316C317.861 150.04 319.07 150.579 320.257 151.079C321.425 151.571 322.601 152.04 324.5 152.04C326.308 152.04 327.678 151.031 329.2 149.89C330.678 148.781 332.308 147.54 334.5 147.54C336.555 147.54 337.602 147.799 338.513 148.06C339.383 148.308 340.075 148.54 341.5 148.54C341.761 148.54 342.115 148.439 342.586 148.205C343.049 147.975 343.582 147.64 344.185 147.223C344.786 146.806 345.443 146.319 346.16 145.79C346.875 145.263 347.647 144.696 348.466 144.129C351.731 141.868 355.839 139.54 360.5 139.54H374.5C375.246 139.54 375.9 139.277 376.551 138.843C377.214 138.4 377.836 137.809 378.539 137.17C379.914 135.92 381.541 134.54 384 134.54C385.011 134.54 385.991 134.204 387.016 133.661C388.049 133.114 389.08 132.386 390.223 131.624C392.367 130.194 394.831 128.697 398 128.553V83.04H374.5C374.224 83.04 374 82.8162 374 82.54C374 82.2639 374.224 82.04 374.5 82.04H398V74.04H374.5C374.224 74.04 374 73.8162 374 73.54C374 73.2639 374.224 73.04 374.5 73.04H398V58.54H368V130.54C368 130.816 367.776 131.04 367.5 131.04C367.224 131.04 367 130.816 367 130.54V76.04H335V139.04C335 139.316 334.776 139.54 334.5 139.54C334.224 139.54 334 139.316 334 139.04V75.04H367V57.54H399V128.54H402C404.479 128.54 405.998 130.079 407.463 131.422C408.952 132.787 410.453 134.04 413 134.04C414.372 134.04 415.132 134.009 415.566 133.965C415.783 133.943 415.902 133.919 415.968 133.9C416.022 133.885 416.033 133.876 416.035 133.874C416.054 133.861 416.047 133.866 416.091 133.835C416.124 133.812 416.168 133.782 416.226 133.753C416.342 133.694 416.475 133.654 416.643 133.625C416.905 133.58 417.313 133.553 418 133.544V120.04H417C416.724 120.04 416.5 119.816 416.5 119.54C416.5 119.264 416.724 119.04 417 119.04H423.5V109.54H422.5C422.224 109.54 422 109.316 422 109.04C422 108.764 422.224 108.54 422.5 108.54H426.5V59.7725L431.223 56.624L431.481 56.4521L436.946 59.6074L437.196 59.751V105.863L449.274 98.8896V89.3613L449.388 89.2227L462 73.8604V66.54C462 66.2639 462.224 66.04 462.5 66.04C462.776 66.04 463 66.2639 463 66.54V73.8584L476 89.3584V100.713L487.5 105.773V59.7725L492.475 56.4561L492.739 56.6016L498.239 59.6016L498.5 59.7432V109.04H501V118.54H506V131.812C507.226 131.34 508.09 130.973 508.676 130.699C509.02 130.538 509.266 130.412 509.431 130.318C509.457 130.304 509.479 130.289 509.5 130.276V126.54C509.5 125.787 509.613 125.139 510.181 124.799C510.434 124.647 510.727 124.591 511.01 124.565C511.295 124.54 511.633 124.54 512 124.54C512.414 124.54 513.009 124.608 513.686 124.701C514.368 124.795 515.173 124.922 516.011 125.046C517.702 125.296 519.542 125.54 521 125.54C521.53 125.54 522.06 125.21 522.707 124.524C523.361 123.832 523.985 122.952 524.804 121.97C526.392 120.064 528.52 118.04 532 118.04C534.615 118.04 536.28 118.207 537.305 118.426C537.784 118.528 538.145 118.649 538.404 118.78C539.395 117.45 541.639 115.54 545 115.54C547.385 115.54 548.855 116.345 550.132 117.111C551.403 117.874 552.411 118.54 554 118.54H558C558.512 118.54 559.044 118.724 559.542 118.978C560.047 119.234 560.556 119.583 561.034 119.96C561.833 120.59 562.572 121.323 563.096 121.898L601.243 99.1104L601.362 99.04H634.561C634.183 98.5907 633.657 98.1094 632.999 97.5996C631.984 96.8137 630.708 95.9974 629.306 95.1562C626.525 93.4877 623.231 91.7122 620.713 89.9492C619.164 88.8649 617.339 87.3597 615.55 85.7217C615.052 86.2935 614.468 87.1401 614.076 88.1143C613.602 89.2949 613.43 90.6069 613.96 91.8428C614.556 93.2348 615.009 94.1813 615.33 94.7959C615.491 95.1034 615.618 95.3247 615.711 95.4756C615.813 95.6397 615.857 95.6901 615.854 95.6865C616.049 95.8818 616.049 96.1983 615.854 96.3936C615.658 96.5888 615.342 96.5888 615.146 96.3936C615.06 96.3066 614.962 96.1659 614.86 96.002C614.751 95.8247 614.613 95.5813 614.444 95.2598C614.108 94.616 613.643 93.6452 613.04 92.2373C612.37 90.6734 612.615 89.0688 613.148 87.7412C613.592 86.6386 614.249 85.6892 614.816 85.042C613.933 84.2098 613.069 83.3541 612.264 82.5107C610.942 81.1266 609.769 79.7635 608.922 78.5811C608.795 78.4041 608.676 78.2296 608.563 78.0596C608.584 79.5728 608.578 81.4149 608.499 83.0645C608.449 84.1084 607.871 85.06 607.125 85.8711C606.373 86.6886 605.402 87.4182 604.457 88.0234C603.509 88.6308 602.568 89.1244 601.867 89.4658C601.516 89.6368 601.223 89.7703 601.018 89.8613C600.915 89.9067 600.834 89.9421 600.778 89.9658C600.751 89.9776 600.729 89.987 600.714 89.9932C600.706 89.9962 600.7 89.9983 600.696 90C600.694 90.0008 600.693 90.0015 600.691 90.002L600.69 90.0029L600 90.2852V78.54C600 77.2465 600.346 76.2207 600.938 75.4297C601.527 74.643 602.333 74.1233 603.197 73.793C604.724 73.2094 606.492 73.1928 607.801 73.3662C608.408 71.367 610.056 69.4531 613.776 67.5928C615.376 66.7929 617.263 65.6953 619.28 64.6084C621.172 63.5888 623.159 62.5928 625.028 61.9268C625.086 61.2942 625.147 60.5531 625.195 59.7539C624.599 59.5099 623.866 59.1614 623.307 58.7686C622.979 58.5382 622.649 58.2528 622.472 57.9209C622.378 57.7464 622.313 57.5336 622.339 57.2988C622.365 57.0582 622.481 56.852 622.646 56.6865C623.582 55.751 624.926 53.8145 624.972 51.3066C624.859 50.8279 624.728 50.5114 624.6 50.3398C623.975 49.5071 621.774 46.8342 619.369 43.8359C618.901 44.4705 618.271 45.517 617.985 46.6611C617.612 48.1552 617.829 50.1367 617.99 50.9424C618.044 51.213 617.868 51.4761 617.598 51.5303C617.327 51.5842 617.064 51.4083 617.01 51.1377C616.838 50.2765 616.588 48.1246 617.015 46.4189C617.372 44.9878 618.183 43.7213 618.726 43.0322C617.204 41.1267 615.656 39.1545 614.437 37.5039C613.793 36.6329 613.236 35.846 612.82 35.2031C612.673 34.9745 612.544 34.7597 612.432 34.5654C611.432 36.0507 609.89 37.9914 608.002 39.7324C605.776 41.7849 603.017 43.6142 600.07 44.0352C599.797 44.0739 599.544 43.8836 599.505 43.6104C599.466 43.3371 599.657 43.084 599.93 43.0449C602.583 42.6658 605.157 40.9944 607.323 38.9971C609.478 37.0098 611.172 34.7504 612.068 33.2852L616.559 24.8057ZM488.5 60.3076V113.54C488.5 113.816 488.276 114.04 488 114.04C487.724 114.04 487.5 113.816 487.5 113.54V106.866L475.299 101.498L475.281 101.49L475.266 101.481L471.766 99.6211C471.522 99.4915 471.429 99.1882 471.559 98.9443C471.688 98.7007 471.991 98.6088 472.234 98.7383L475 100.208V89.7207L462.504 74.8223L450.274 89.7188V98.3125L451.25 97.75C451.489 97.612 451.795 97.6945 451.933 97.9336C452.071 98.1727 451.989 98.4782 451.75 98.6162L437.196 107.019V112.54C437.196 112.816 436.972 113.04 436.696 113.04C436.42 113.04 436.196 112.816 436.196 112.54V60.3281L431.519 57.6279L427.5 60.3076V109.54H424.5V120.04H419V133.562C419.919 133.639 420.825 133.914 421.728 134.28C422.787 134.711 423.894 135.287 425.031 135.841C427.33 136.959 429.869 138.04 433 138.04C436.296 138.04 440.094 138.673 444.445 139.295C448.814 139.919 453.786 140.54 459.5 140.54C470.995 140.54 485.417 139.538 494.827 136.071C499.577 134.321 501.197 133.698 502.127 133.326C503.005 132.975 503.286 132.84 505 132.194V119.54H500V110.04H496C495.724 110.04 495.5 109.816 495.5 109.54C495.5 109.264 495.724 109.04 496 109.04H497.5V60.3359L492.525 57.623L488.5 60.3076ZM648.233 77.8203C646.227 78.8115 644.436 79.7867 643.251 80.4727L643.243 80.4775C640.901 81.7787 638.066 82.2861 635.307 82.5996C632.504 82.918 629.825 83.0358 627.608 83.5283C626.759 83.717 625.985 84.0929 625.289 84.585C623.43 85.8985 622.175 88.0043 621.61 89.3525C624.043 91.0141 627.097 92.6656 629.819 94.2988C631.23 95.1451 632.548 95.9852 633.611 96.8086C634.549 97.5349 635.332 98.2806 635.794 99.04H662.127C660.96 98.033 659.164 96.4109 657.146 94.3936C655.339 92.5861 653.685 89.9031 652.178 86.9004C650.746 84.0486 649.432 80.8736 648.233 77.8203ZM607.584 74.3447C606.396 74.1981 604.848 74.233 603.555 74.7275C602.821 75.0081 602.189 75.4289 601.739 76.0293C601.293 76.6254 601 77.4336 601 78.54V88.7705C601.129 88.7106 601.274 88.6434 601.43 88.5674C602.108 88.2369 603.011 87.7616 603.917 87.1816C604.826 86.5995 605.718 85.9225 606.389 85.1934C607.065 84.4577 607.467 83.7215 607.501 83.0156C607.635 80.2371 607.556 76.8877 607.5 75.5615L607.501 75.5605C607.501 75.5537 607.5 75.5469 607.5 75.54C607.5 75.1458 607.525 74.747 607.584 74.3447ZM630.776 62.4873C629.539 61.8688 627.772 62.049 625.66 62.7637C623.786 63.3982 621.745 64.4168 619.755 65.4893C617.784 66.5515 615.837 67.6804 614.224 68.4873C610.373 70.4127 609.057 72.2769 608.656 74.0391C608.545 74.5267 608.501 75.0198 608.5 75.5225C608.5 75.5315 608.501 75.5406 608.501 75.5498C608.504 75.7474 608.589 76.0594 608.803 76.4951C609.015 76.9265 609.329 77.4336 609.734 77.999C610.544 79.129 611.683 80.4537 612.986 81.8193C615.418 84.3668 618.386 87.0174 620.775 88.7637C621.381 87.3959 622.571 85.4446 624.318 84.0625C624.022 83.5819 623.721 82.9414 623.562 82.2393C623.351 81.3029 623.383 80.1965 624.1 79.2402C624.265 79.0194 624.579 78.9742 624.8 79.1396C625.021 79.3053 625.066 79.6189 624.9 79.8398C624.418 80.4834 624.366 81.2564 624.538 82.0186C624.664 82.5752 624.903 83.094 625.139 83.4873C625.817 83.0666 626.568 82.7347 627.392 82.5518C629.675 82.0444 632.496 81.912 635.193 81.6055C637.753 81.3147 640.245 80.8652 642.321 79.8311C641.506 78.3733 639.651 75.6919 637.209 73.9473C636.233 73.2502 635.593 72.2543 635.113 71.1729C634.636 70.097 634.297 68.8864 633.958 67.7451C633.613 66.5856 633.267 65.4912 632.771 64.5654C632.279 63.6481 631.656 62.9272 630.776 62.4873ZM625.305 54.4443C624.756 55.7588 623.974 56.773 623.354 57.3936C623.346 57.4009 623.342 57.4075 623.338 57.4121C623.341 57.4203 623.345 57.4328 623.354 57.4492C623.417 57.5673 623.585 57.7421 623.881 57.9502C624.269 58.2229 624.778 58.4814 625.252 58.6914C625.318 57.2823 625.349 55.7899 625.305 54.4443Z" fill="white"/>
<path d="M656.5 156.04C656.776 156.04 657 156.264 657 156.54C657 156.816 656.776 157.04 656.5 157.04H458.5C458.224 157.04 458 156.816 458 156.54C458 156.264 458.224 156.04 458.5 156.04H656.5Z" fill="white"/>
<path d="M226.5 151.04C230.81 151.04 232.482 151.551 234.32 152.058C236.092 152.546 238.047 153.04 243 153.04C243.276 153.04 243.5 153.264 243.5 153.54C243.5 153.816 243.276 154.04 243 154.04C237.953 154.04 235.908 153.534 234.055 153.022C232.268 152.529 230.69 152.04 226.5 152.04C219.79 152.04 217.735 154.662 217.485 155.661C217.418 155.929 217.147 156.092 216.879 156.025C216.611 155.958 216.448 155.687 216.515 155.419C216.932 153.752 219.61 151.04 226.5 151.04Z" fill="white"/>
<path d="M242.5 146.54C242.5 146.816 242.276 147.04 242 147.04C241.724 147.04 241.5 146.816 241.5 146.54V137.54H223C222.724 137.54 222.5 137.316 222.5 137.04C222.5 136.764 222.724 136.54 223 136.54H241.5V130.54H221C220.724 130.54 220.5 130.316 220.5 130.04C220.5 129.764 220.724 129.54 221 129.54H241.5V123.54H223C222.724 123.54 222.5 123.316 222.5 123.04C222.5 122.764 222.724 122.54 223 122.54H241.5V116.54H200.5V154.04C200.5 154.316 200.276 154.54 200 154.54C199.724 154.54 199.5 154.316 199.5 154.04V120.04H193.5V154.04C193.5 154.316 193.276 154.54 193 154.54C192.724 154.54 192.5 154.316 192.5 154.04V119.04H199.5V115.54H242.5V146.54Z" fill="white"/>
<path d="M324 88.54C324.276 88.54 324.5 88.7639 324.5 89.04C324.5 89.3162 324.276 89.54 324 89.54C322.804 89.54 321.806 89.7816 321.117 90.3115C320.452 90.823 320 91.6616 320 93.04V141.04C320 141.316 319.776 141.54 319.5 141.54C319.224 141.54 319 141.316 319 141.04V102.54H294V141.04C294 141.316 293.776 141.54 293.5 141.54C293.224 141.54 293 141.316 293 141.04V119.54H267V125.54H247.5C247.224 125.54 247 125.316 247 125.04C247 124.764 247.224 124.54 247.5 124.54H266V118.54H293V101.54H319V93.04C319 91.4186 319.548 90.257 320.508 89.5186C321.444 88.7986 322.696 88.54 324 88.54Z" fill="white"/>
<path d="M326.5 101.54C326.776 101.54 327 101.764 327 102.04V139.04C327 139.316 326.776 139.54 326.5 139.54C326.224 139.54 326 139.316 326 139.04V102.04C326 101.764 326.224 101.54 326.5 101.54Z" fill="white"/>
<path d="M567 136.04C567.276 136.04 567.5 136.264 567.5 136.54C567.5 136.816 567.276 137.04 567 137.04H551.5C551.224 137.04 551 136.816 551 136.54C551 136.264 551.224 136.04 551.5 136.04H567Z" fill="white"/>
<path d="M598.5 133.04C598.776 133.04 599 133.264 599 133.54C599 133.816 598.776 134.04 598.5 134.04H561.5C561.224 134.04 561 133.816 561 133.54C561 133.264 561.224 133.04 561.5 133.04H598.5Z" fill="white"/>
<path d="M313.5 130.04C313.776 130.04 314 130.264 314 130.54C314 130.816 313.776 131.04 313.5 131.04H301.5C301.224 131.04 301 130.816 301 130.54C301 130.264 301.224 130.04 301.5 130.04H313.5Z" fill="white"/>
<path d="M359 129.04C359.276 129.04 359.5 129.264 359.5 129.54C359.5 129.816 359.276 130.04 359 130.04H345C344.724 130.04 344.5 129.816 344.5 129.54C344.5 129.264 344.724 129.04 345 129.04H359Z" fill="white"/>
<path d="M359 124.04C359.276 124.04 359.5 124.264 359.5 124.54C359.5 124.816 359.276 125.04 359 125.04H357.5C357.224 125.04 357 124.816 357 124.54C357 124.264 357.224 124.04 357.5 124.04H359Z" fill="white"/>
<path d="M313.5 121.04C313.776 121.04 314 121.264 314 121.54C314 121.816 313.776 122.04 313.5 122.04H301.5C301.224 122.04 301 121.816 301 121.54C301 121.264 301.224 121.04 301.5 121.04H313.5Z" fill="white"/>
<path d="M410.5 121.04C410.5 121.316 410.276 121.54 410 121.54C409.724 121.54 409.5 121.316 409.5 121.04V65.54H406.5C406.224 65.54 406 65.3162 406 65.04C406 64.7639 406.224 64.54 406.5 64.54H410.5V121.04Z" fill="white"/>
<path d="M313.5 112.04C313.776 112.04 314 112.264 314 112.54C314 112.816 313.776 113.04 313.5 113.04H301.5C301.224 113.04 301 112.816 301 112.54C301 112.264 301.224 112.04 301.5 112.04H313.5Z" fill="white"/>
<path d="M385.5 110.04C385.776 110.04 386 110.264 386 110.54C386 110.816 385.776 111.04 385.5 111.04H376.5C376.224 111.04 376 110.816 376 110.54C376 110.264 376.224 110.04 376.5 110.04H385.5Z" fill="white"/>
<path d="M343.5 102.04C343.776 102.04 344 102.264 344 102.54C344 102.816 343.776 103.04 343.5 103.04H340.5C340.224 103.04 340 102.816 340 102.54C340 102.264 340.224 102.04 340.5 102.04H343.5Z" fill="white"/>
<path d="M394 101.54C394.276 101.54 394.5 101.764 394.5 102.04C394.5 102.316 394.276 102.54 394 102.54H374.5C374.224 102.54 374 102.316 374 102.04C374 101.764 374.224 101.54 374.5 101.54H394Z" fill="white"/>
<path d="M351.5 95.04C351.776 95.04 352 95.2639 352 95.54C352 95.8162 351.776 96.04 351.5 96.04H340.5C340.224 96.04 340 95.8162 340 95.54C340 95.2639 340.224 95.04 340.5 95.04H351.5Z" fill="white"/>
<path d="M394 91.54C394.276 91.54 394.5 91.7639 394.5 92.04C394.5 92.3162 394.276 92.54 394 92.54H374.5C374.224 92.54 374 92.3162 374 92.04C374 91.7639 374.224 91.54 374.5 91.54H394Z" fill="white"/>
<path d="M360 85.54C360.276 85.54 360.5 85.7639 360.5 86.04C360.5 86.3162 360.276 86.54 360 86.54H340.5C340.224 86.54 340 86.3162 340 86.04C340 85.7639 340.224 85.54 340.5 85.54H360Z" fill="white"/>
<path d="M660.509 67.4756C660.885 67.417 661.329 67.3956 661.724 67.5928C662.165 67.8136 663.324 68.2497 664.041 69.3252C664.79 70.4482 665 72.1364 663.964 74.7256C662.993 77.1517 663.264 78.4735 663.121 79.5439C663.085 79.8139 663.016 80.0883 662.863 80.3408C662.706 80.6002 662.481 80.8016 662.188 80.958C661.637 81.2524 660.794 81.4127 659.55 81.5371C659.275 81.5646 659.03 81.3646 659.003 81.0898C658.975 80.8151 659.175 80.5705 659.45 80.543C660.706 80.4174 661.363 80.265 661.718 80.0752C661.878 79.9896 661.958 79.9055 662.008 79.8232C662.062 79.7341 662.103 79.6097 662.13 79.4111C662.237 78.6064 662.007 76.928 663.036 74.3545C664 71.9437 663.71 70.6318 663.209 69.8799C662.676 69.0804 661.835 68.7664 661.276 68.4873C661.171 68.4345 660.989 68.4131 660.663 68.4639C660.335 68.5149 659.99 68.6133 659.55 68.7148C658.738 68.9021 657.666 69.0851 656.723 68.4561C656.493 68.3029 656.431 67.9925 656.584 67.7627C656.737 67.5329 657.048 67.4708 657.277 67.624C657.834 67.995 658.512 67.928 659.325 67.7402C659.698 67.6543 660.134 67.5339 660.509 67.4756Z" fill="white"/>
<path fill-rule="evenodd" clip-rule="evenodd" d="M629.431 35.7051C629.983 35.3736 630.675 35.2226 631.277 35.624C632.127 36.1906 632.718 37.0547 632.868 37.958C633.023 38.8857 632.704 39.8381 631.777 40.4561C630.931 41.0205 629.877 41.6112 629.086 42.0352C631.149 43.2064 633.386 45.2255 635.387 47.3174C637.44 49.4643 639.284 51.7329 640.494 53.3516C641.694 51.7641 643.651 49.8139 645.878 48.1055C648.374 46.1908 651.279 44.5264 653.91 44.0479C656.239 43.6244 658.469 44.1567 660.291 44.9707C661.94 45.7077 663.285 46.6907 664.111 47.457L666.314 46.5762C666.571 46.4736 666.861 46.5981 666.964 46.8545C667.066 47.1109 666.942 47.4013 666.686 47.5039L664.497 48.3789C664.483 50.7231 664.328 54.1096 663.895 57.0625C663.668 58.609 663.362 60.0605 662.951 61.1865C662.746 61.7491 662.507 62.2503 662.226 62.6465C661.946 63.0396 661.597 63.3684 661.158 63.5146C660.164 63.8462 659.129 63.5802 658.19 62.9902C657.339 62.4549 656.526 61.6286 655.807 60.6299C655.466 60.7263 655.017 60.817 654.47 60.8818C654.51 60.9601 654.549 61.0428 654.586 61.1299C654.824 61.6967 655 62.4855 655 63.54C655 64.1902 654.661 64.9285 654.213 65.6416C653.752 66.375 653.122 67.1638 652.436 67.9346C651.062 69.4775 649.419 70.9946 648.323 71.9219C648.112 72.1002 647.797 72.074 647.618 71.8633C647.44 71.6525 647.466 71.3366 647.677 71.1582C648.748 70.2522 650.355 68.7692 651.689 67.2705C652.357 66.5207 652.946 65.7779 653.365 65.1104C653.797 64.4225 654 63.8898 654 63.54C654 62.595 653.842 61.9416 653.664 61.5176C653.54 61.222 653.411 61.0537 653.329 60.9678C652.035 61.0164 650.374 60.9245 648.402 60.5303C648.132 60.4761 647.956 60.213 648.01 59.9424C648.064 59.6717 648.327 59.4959 648.598 59.5498C650.59 59.9483 652.238 60.0247 653.475 59.9629C654.216 59.9258 654.802 59.8386 655.223 59.7461C654.074 57.8561 653.219 55.4745 653.002 53.085C652.977 52.8101 653.18 52.567 653.455 52.542C653.73 52.5172 653.973 52.7202 653.998 52.9951C654.222 55.455 655.174 57.9237 656.417 59.7598C656.737 60.2321 657.074 60.656 657.417 61.0264C657.361 60.8084 657.311 60.5823 657.271 60.3516C657.101 59.384 657.082 58.2569 657.553 57.3164C657.676 57.0694 657.977 56.9693 658.224 57.0928C658.471 57.2163 658.571 57.5167 658.447 57.7637C658.118 58.4232 658.1 59.2963 658.255 60.1787C658.402 61.0134 658.691 61.7859 658.918 62.2559C659.628 62.6541 660.278 62.7534 660.842 62.5654C661.003 62.5116 661.197 62.3669 661.41 62.0674C661.621 61.7709 661.823 61.3602 662.012 60.8438C662.388 59.8115 662.682 58.4371 662.905 56.917C663.337 53.9733 663.489 50.5694 663.498 48.252C662.758 47.5516 661.477 46.5955 659.884 45.8838C658.181 45.123 656.161 44.6558 654.09 45.0322C651.691 45.4684 648.937 47.0191 646.487 48.8984C644.043 50.7735 641.968 52.9225 640.914 54.4805C640.719 54.7689 640.563 55.0319 640.447 55.2637C640.111 55.9359 639.931 56.7735 639.816 57.7246C639.699 58.6925 639.658 59.671 639.561 60.7119C639.375 62.6937 638.996 64.8102 637.277 65.9561C637.048 66.1092 636.737 66.0471 636.584 65.8174C636.431 65.5876 636.493 65.2772 636.723 65.124C638.004 64.2699 638.375 62.6364 638.564 60.6182C638.654 59.6593 638.707 58.5749 638.824 57.6055C638.944 56.6192 639.139 55.6441 639.553 54.8164C639.648 54.6261 639.762 54.4267 639.892 54.2197C638.713 52.6199 636.803 50.2454 634.664 48.0088C632.386 45.6263 629.899 43.4526 627.793 42.4951C623.427 40.5108 620.04 39.6939 618.93 39.5352C618.657 39.4961 618.466 39.2429 618.505 38.9697C618.544 38.6965 618.797 38.5061 619.07 38.5449C620.197 38.7058 623.237 39.4406 627.174 41.1299C626.912 39.7471 627.317 38.3324 627.946 37.2832C628.351 36.6091 628.873 36.0397 629.431 35.7051ZM630.723 36.4561C630.575 36.3576 630.329 36.3316 629.944 36.5625C629.565 36.7904 629.149 37.2212 628.804 37.7969C628.19 38.8191 627.879 40.1541 628.257 41.3438C629.044 40.9316 630.276 40.2552 631.223 39.624C631.796 39.242 631.977 38.6943 631.882 38.1221C631.782 37.5255 631.373 36.8895 630.723 36.4561Z" fill="white"/>
<path d="M462.5 57.04C462.776 57.04 463 57.2639 463 57.54V63.04C463 63.3162 462.776 63.54 462.5 63.54C462.224 63.54 462 63.3162 462 63.04V57.54C462 57.2639 462.224 57.04 462.5 57.04Z" fill="white"/>
<path fill-rule="evenodd" clip-rule="evenodd" d="M434.961 36.54H438V37.04C438 39.7176 437.874 43.8113 437.497 47.3926C437.309 49.1811 437.056 50.8591 436.719 52.1738C436.55 52.8303 436.357 53.4133 436.132 53.8799C435.913 54.3327 435.633 54.7428 435.257 54.9688C435.02 55.1106 434.713 55.0336 434.571 54.7969C434.429 54.5601 434.506 54.2533 434.743 54.1113C434.866 54.0372 435.04 53.8423 435.231 53.4453C435.417 53.0617 435.59 52.5485 435.75 51.9248C436.069 50.6793 436.316 49.0574 436.503 47.2881C436.853 43.9678 436.982 40.1876 436.997 37.54H426.003C426.018 40.1876 426.147 43.9678 426.497 47.2881C426.684 49.0574 426.931 50.6793 427.25 51.9248C427.41 52.5485 427.583 53.0617 427.769 53.4453C427.96 53.8423 428.134 54.0372 428.257 54.1113C428.494 54.2533 428.571 54.5601 428.429 54.7969C428.287 55.0336 427.98 55.1106 427.743 54.9688C427.367 54.7428 427.087 54.3327 426.868 53.8799C426.643 53.4133 426.45 52.8303 426.281 52.1738C425.944 50.8591 425.691 49.1811 425.503 47.3926C425.126 43.8113 425 39.7176 425 37.04V36.54H428.039L431.002 0H431.998L434.961 36.54ZM429.042 36.54H433.958L431.5 6.22266L429.042 36.54Z" fill="white"/>
<path fill-rule="evenodd" clip-rule="evenodd" d="M495.461 36.54H498.5V37.04C498.5 39.7176 498.374 43.8113 497.997 47.3926C497.809 49.1811 497.556 50.8591 497.219 52.1738C497.05 52.8303 496.857 53.4133 496.632 53.8799C496.413 54.3327 496.133 54.7428 495.757 54.9688C495.52 55.1106 495.213 55.0336 495.071 54.7969C494.929 54.5601 495.006 54.2533 495.243 54.1113C495.366 54.0372 495.54 53.8423 495.731 53.4453C495.917 53.0617 496.09 52.5485 496.25 51.9248C496.569 50.6793 496.816 49.0574 497.003 47.2881C497.353 43.9678 497.482 40.1876 497.497 37.54H486.503C486.518 40.1876 486.647 43.9678 486.997 47.2881C487.184 49.0574 487.431 50.6793 487.75 51.9248C487.91 52.5485 488.083 53.0617 488.269 53.4453C488.46 53.8423 488.634 54.0372 488.757 54.1113C488.994 54.2533 489.071 54.5601 488.929 54.7969C488.787 55.0336 488.48 55.1106 488.243 54.9688C487.867 54.7428 487.587 54.3327 487.368 53.8799C487.143 53.4133 486.95 52.8303 486.781 52.1738C486.444 50.8591 486.191 49.1811 486.003 47.3926C485.626 43.8113 485.5 39.7176 485.5 37.04V36.54H488.539L491.502 0H492.498L495.461 36.54ZM489.542 36.54H494.458L492 6.22266L489.542 36.54Z" fill="white"/>
<path d="M659.146 52.6865C659.342 52.4913 659.658 52.4913 659.854 52.6865L660.354 53.1865C660.549 53.3818 660.549 53.6983 660.354 53.8936C660.158 54.0888 659.842 54.0888 659.646 53.8936L659.146 53.3936C658.951 53.1983 658.951 52.8818 659.146 52.6865Z" fill="white"/>
</svg>
